<svg width="282" height="81" viewBox="0 0 282 81" fill="none" xmlns="http://www.w3.org/2000/svg">
<path d="M98.832 12.6H86.88V63H99.336C107.256 63 111.36 58.824 111.36 51.048V46.944C111.36 41.616 109.704 37.8 105.456 36.144C108.984 34.488 110.568 31.176 110.568 25.992V24.192C110.568 16.416 107.04 12.6 98.832 12.6ZM98.328 40.32C101.928 40.32 103.44 41.76 103.44 46.44V50.832C103.44 54.576 102 55.8 99.336 55.8H94.8V40.32H98.328ZM98.616 19.8C101.424 19.8 102.648 21.384 102.648 24.984V27.792C102.648 31.824 100.848 33.12 97.896 33.12H94.8V19.8H98.616ZM124.05 19.8H137.73V12.6H116.13V63H137.73V55.8H124.05V41.04H134.922V33.84H124.05V19.8ZM152.81 24.696C152.81 39.096 168.29 41.04 168.29 51.408C168.29 55.008 166.706 56.304 164.186 56.304C161.666 56.304 160.082 55.008 160.082 51.408V47.808H152.594V50.904C152.594 58.968 156.626 63.576 164.402 63.576C172.178 63.576 176.21 58.968 176.21 50.904C176.21 36.504 160.73 34.56 160.73 24.192C160.73 20.592 162.17 19.224 164.69 19.224C167.21 19.224 168.65 20.592 168.65 24.192V26.28H176.138V24.696C176.138 16.632 172.178 12.024 164.474 12.024C156.77 12.024 152.81 16.632 152.81 24.696ZM191.691 12.6H180.675V63H187.587V27.36L193.491 63H200.979L206.451 26.856V63H213.939V12.6H202.923L197.523 48.384L191.691 12.6ZM219.7 63H227.62V12.6H219.7V63ZM233.411 63H254.363V55.8H241.331V12.6H233.411V63ZM265.73 19.8H279.41V12.6H257.81V63H279.41V55.8H265.73V41.04H276.602V33.84H265.73V19.8Z" fill="white"/>
<path fill-rule="evenodd" clip-rule="evenodd" d="M3.75217 41.3999L13.1737 62.9348C13.9741 64.7583 15.3305 66.2784 17.0448 67.2718C18.759 68.2652 20.7425 68.6816 22.7072 68.4606C24.672 68.2396 26.5158 67.3927 27.971 66.0428C29.4258 64.6933 30.4168 62.9096 30.7996 60.9537L32.7222 51.2567L32.7229 51.2529C32.7846 50.9575 32.9448 50.6923 33.177 50.5017C33.4102 50.3103 33.7016 50.2058 34.0023 50.2058C34.3029 50.2058 34.5944 50.3103 34.8275 50.5017C35.0597 50.6923 35.22 50.9575 35.2816 51.2529L35.2824 51.2567L37.2055 60.9567C37.5885 62.9121 38.5791 64.6936 40.0335 66.0428C41.4887 67.3927 43.3325 68.2396 45.2973 68.4606C47.2621 68.6816 49.2455 68.2652 50.9598 67.2718C52.674 66.2784 54.0304 64.7583 54.8309 62.9348L64.2524 41.3999L64.2542 41.3957C66.7082 35.8997 67.9846 29.9431 68 23.9154V23.912C68 18.1329 67.3027 11.7266 61.9326 6.28979C58.1832 2.50711 53.1691 0.272431 47.8721 0.0233146C42.9298 -0.209119 38.0733 1.3026 34.1294 4.27945C30.1855 1.3026 25.329 -0.209119 20.3867 0.0233146C15.0977 0.272051 10.0909 2.5003 6.34335 6.2725C4.29097 8.1995 2.66525 10.5422 1.5728 13.1473C0.479101 15.7553 -0.0553329 18.5672 0.00452642 21.3982L0.00452213 23.912L0.0045308 23.9154C0.0198848 29.943 1.29621 35.8993 3.75005 41.3951L3.75217 41.3999ZM6.25243 23.912V21.3839L6.25196 21.3484C6.19925 19.3702 6.57021 17.4038 7.33953 15.5834C8.10886 13.763 9.25843 12.1315 10.7098 10.8001L10.7306 10.7811L10.7505 10.7611C13.5665 7.94621 17.3705 6.36694 21.3349 6.36694C25.2981 6.36694 29.1009 7.94516 31.9166 10.7583L31.9194 10.7611L37.4698 16.3784C37.76 16.6733 38.1051 16.9073 38.4853 17.0671C38.866 17.2271 39.2743 17.3094 39.6867 17.3094C40.0991 17.3094 40.5074 17.2271 40.8881 17.0671C41.2671 16.9078 41.6113 16.6747 41.9009 16.3811C42.1919 16.089 42.423 15.7418 42.5809 15.3594C42.7395 14.9754 42.8212 14.5635 42.8212 14.1475C42.8212 13.7315 42.7395 13.3196 42.5809 12.9356C42.4233 12.5541 42.1929 12.2075 41.9027 11.9158L38.7918 8.7369C41.4538 7.02421 44.5952 6.19322 47.7718 6.38409C51.4414 6.60457 54.9038 8.1734 57.5046 10.7941L57.5107 10.8002C60.9823 14.2525 61.7521 18.3668 61.7521 23.9137C61.7585 29.0554 60.6884 34.1428 58.6135 38.8393L49.1516 60.3651L49.1495 60.37C48.911 60.9186 48.5182 61.3844 48.0197 61.7098C47.5212 62.0351 46.939 62.2057 46.3452 62.2004L46.339 62.2004C45.6309 62.1975 44.9453 61.9491 44.3972 61.4969C43.8501 61.0456 43.4732 60.4187 43.3292 59.7208L43.3284 59.7168L41.4051 49.9978L41.4038 49.9913C41.0544 48.2713 40.1271 46.7257 38.7785 45.6157C37.4299 44.5058 35.7428 43.8996 34.0023 43.8996C32.2618 43.8996 30.5746 44.5058 29.226 45.6157C27.8774 46.7257 26.9501 48.2713 26.6007 49.9913L24.6762 59.7168L24.6753 59.7208C24.5314 60.4187 24.1544 61.0456 23.6073 61.4969C23.0592 61.9491 22.3736 62.1975 21.6656 62.2004L21.6593 62.2004C21.0656 62.2057 20.4833 62.0351 19.9849 61.7098C19.4864 61.3844 19.0935 60.9186 18.8551 60.37L9.38978 38.8365C7.31307 34.1411 6.24391 29.0536 6.25243 23.912ZM24.7163 62.2653C24.6266 62.3533 24.5329 62.4377 24.4353 62.5182L24.7163 62.2653Z" fill="white"/>
<path d="M16.8386 26.8803H21.7431V31.8276C21.7431 32.4837 22.0014 33.1129 22.4613 33.5768C22.9212 34.0407 23.5449 34.3013 24.1953 34.3013C24.8457 34.3013 25.4694 34.0407 25.9293 33.5768C26.3891 33.1129 26.6475 32.4837 26.6475 31.8276V26.8803H31.5519C32.2023 26.8803 32.826 26.6197 33.2859 26.1558C33.7458 25.6919 34.0042 25.0627 34.0042 24.4066C34.0042 23.7506 33.7458 23.1214 33.2859 22.6575C32.826 22.1936 32.2023 21.933 31.5519 21.933H26.6475V16.9856C26.6475 16.3296 26.3891 15.7004 25.9293 15.2365C25.4694 14.7726 24.8457 14.512 24.1953 14.512C23.5449 14.512 22.9212 14.7726 22.4613 15.2365C22.0014 15.7004 21.7431 16.3296 21.7431 16.9856V21.933H16.8386C16.1883 21.933 15.5645 22.1936 15.1047 22.6575C14.6448 23.1214 14.3864 23.7506 14.3864 24.4066C14.3864 25.0627 14.6448 25.6919 15.1047 26.1558C15.5645 26.6197 16.1883 26.8803 16.8386 26.8803Z" fill="white"/>
</svg>
