<svg width="208" height="61" viewBox="0 0 208 61" fill="none" xmlns="http://www.w3.org/2000/svg">
<path d="M85.888 15.4H77.92V49H86.224C91.504 49 94.24 46.216 94.24 41.032V38.296C94.24 34.744 93.136 32.2 90.304 31.096C92.656 29.992 93.712 27.784 93.712 24.328V23.128C93.712 17.944 91.36 15.4 85.888 15.4ZM85.552 33.88C87.952 33.88 88.96 34.84 88.96 37.96V40.888C88.96 43.384 88 44.2 86.224 44.2H83.2V33.88H85.552ZM85.744 20.2C87.616 20.2 88.432 21.256 88.432 23.656V25.528C88.432 28.216 87.232 29.08 85.264 29.08H83.2V20.2H85.744ZM102.7 20.2H111.82V15.4H97.42V49H111.82V44.2H102.7V34.36H109.948V29.56H102.7V20.2ZM121.873 23.464C121.873 33.064 132.193 34.36 132.193 41.272C132.193 43.672 131.137 44.536 129.457 44.536C127.777 44.536 126.721 43.672 126.721 41.272V38.872H121.729V40.936C121.729 46.312 124.417 49.384 129.601 49.384C134.785 49.384 137.473 46.312 137.473 40.936C137.473 31.336 127.153 30.04 127.153 23.128C127.153 20.728 128.113 19.816 129.793 19.816C131.473 19.816 132.433 20.728 132.433 23.128V24.52H137.425V23.464C137.425 18.088 134.785 15.016 129.649 15.016C124.513 15.016 121.873 18.088 121.873 23.464ZM147.794 15.4H140.45V49H145.058V25.24L148.994 49H153.986L157.634 24.904V49H162.626V15.4H155.282L151.682 39.256L147.794 15.4ZM166.467 49H171.747V15.4H166.467V49ZM175.608 49H189.576V44.2H180.888V15.4H175.608V49ZM197.153 20.2H206.273V15.4H191.873V49H206.273V44.2H197.153V34.36H204.401V29.56H197.153V20.2Z" fill="white"/>
<path fill-rule="evenodd" clip-rule="evenodd" d="M3.31074 36.5293L11.6238 55.5307C12.3301 57.1397 13.5269 58.481 15.0395 59.3575C16.552 60.234 18.3022 60.6014 20.0358 60.4064C21.7694 60.2114 23.3963 59.4641 24.6803 58.273C25.9639 57.0823 26.8383 55.5085 27.1761 53.7827L28.8725 45.2265L28.8732 45.2232C28.9276 44.9625 29.069 44.7285 29.2738 44.5603C29.4796 44.3914 29.7367 44.2992 30.002 44.2992C30.2673 44.2992 30.5244 44.3914 30.7302 44.5603C30.935 44.7285 31.0764 44.9625 31.1308 45.2232L31.1315 45.2265L32.8284 53.7853C33.1663 55.5106 34.0404 57.0825 35.3237 58.273C36.6077 59.4641 38.2346 60.2114 39.9682 60.4064C41.7018 60.6014 43.452 60.234 44.9645 59.3575C46.477 58.481 47.6739 57.1397 48.3802 55.5307L56.6933 36.5293L56.6949 36.5256C58.8602 31.6762 59.9865 26.4204 60 21.1018V21.0989C60 15.9996 59.3848 10.347 54.6464 5.54982C51.3381 2.21216 46.9139 0.24038 42.2401 0.0205717C37.8792 -0.184517 33.5941 1.14935 30.1142 3.77598C26.6342 1.14935 22.3491 -0.184517 17.9883 0.0205717C13.3215 0.240045 8.9037 2.20615 5.59707 5.53456C3.78615 7.23486 2.35169 9.30197 1.38777 11.6005C0.422736 13.9017 -0.0488231 16.3828 0.0039939 18.8808L0.00399012 21.0989L0.00399777 21.1018C0.0175454 26.4203 1.14372 31.6759 3.30886 36.5251L3.31074 36.5293ZM5.51685 21.0989V18.8681L5.51644 18.8369C5.46993 17.0914 5.79725 15.3563 6.47606 13.7501C7.15487 12.1439 8.1692 10.7042 9.44983 9.52949L9.46814 9.51269L9.48572 9.49512C11.9704 7.01136 15.3269 5.61789 18.8249 5.61789C22.3218 5.61789 25.6773 7.01044 28.1617 9.49266L28.1642 9.49512L33.0616 14.4516C33.3176 14.7117 33.6221 14.9182 33.9576 15.0592C34.2935 15.2003 34.6538 15.273 35.0177 15.273C35.3815 15.273 35.7418 15.2003 36.0777 15.0592C36.4121 14.9186 36.7158 14.713 36.9714 14.4539C37.2282 14.1961 37.4321 13.8898 37.5714 13.5524C37.7113 13.2136 37.7834 12.8502 37.7834 12.4831C37.7834 12.1161 37.7113 11.7526 37.5714 11.4138C37.4323 11.0771 37.229 10.7714 36.973 10.5139L34.2281 7.70903C36.5769 6.19783 39.3487 5.46461 42.1516 5.63302C45.3894 5.82757 48.4445 7.21183 50.7393 9.5242L50.7447 9.52957C53.8079 12.5758 54.4871 16.206 54.4871 21.1003C54.4928 25.6371 53.5486 30.126 51.7178 34.2699L43.3691 53.2634L43.3672 53.2677C43.1568 53.7517 42.8101 54.1627 42.3703 54.4498C41.9305 54.7369 41.4167 54.8874 40.8929 54.8827L40.8873 54.8827C40.2626 54.8801 39.6577 54.661 39.174 54.262C38.6913 53.8638 38.3587 53.3106 38.2316 52.6948L38.2309 52.6913L36.5339 44.1157L36.5327 44.1099C36.2245 42.5923 35.4063 41.2285 34.2163 40.2492C33.0264 39.2698 31.5377 38.7349 30.002 38.7349C28.4663 38.7349 26.9776 39.2698 25.7877 40.2492C24.5977 41.2285 23.7795 42.5923 23.4712 44.1099L21.7731 52.6913L21.7724 52.6948C21.6453 53.3106 21.3127 53.8638 20.83 54.262C20.3463 54.661 19.7414 54.8801 19.1167 54.8827L19.1111 54.8827C18.5873 54.8874 18.0735 54.7369 17.6337 54.4498C17.1938 54.1627 16.8472 53.7517 16.6368 53.2677L8.2851 34.2675C6.45271 30.1245 5.50933 25.6355 5.51685 21.0989ZM21.8085 54.94C21.7293 55.0177 21.6466 55.0921 21.5606 55.1631L21.8085 54.94Z" fill="white"/>
<path d="M14.8576 23.7182H19.1851V28.0835C19.1851 28.6623 19.413 29.2175 19.8188 29.6268C20.2246 30.0362 20.7749 30.2661 21.3488 30.2661C21.9226 30.2661 22.473 30.0362 22.8788 29.6268C23.2846 29.2175 23.5125 28.6623 23.5125 28.0835V23.7182H27.84C28.4138 23.7182 28.9642 23.4882 29.3699 23.0789C29.7757 22.6696 30.0037 22.1144 30.0037 21.5355C30.0037 20.9566 29.7757 20.4015 29.3699 19.9922C28.9642 19.5828 28.4138 19.3529 27.84 19.3529H23.5125V14.9876C23.5125 14.4087 23.2846 13.8535 22.8788 13.4442C22.473 13.0349 21.9226 12.8049 21.3488 12.8049C20.7749 12.8049 20.2246 13.0349 19.8188 13.4442C19.413 13.8535 19.1851 14.4087 19.1851 14.9876V19.3529H14.8576C14.2838 19.3529 13.7334 19.5828 13.3276 19.9922C12.9219 20.4015 12.6939 20.9566 12.6939 21.5355C12.6939 22.1144 12.9219 22.6696 13.3276 23.0789C13.7334 23.4882 14.2838 23.7182 14.8576 23.7182Z" fill="white"/>
</svg>
