<svg width="29" height="29" viewBox="0 0 29 29" fill="none" xmlns="http://www.w3.org/2000/svg">
<path d="M24.7515 4.2454C19.0881 -1.41633 9.90714 -1.41497 4.2454 4.24852C-1.41633 9.91201 -1.41497 19.0929 4.24852 24.7546C9.91201 30.4164 19.0929 30.415 24.7546 24.7515C27.4737 22.0316 29.0008 18.3428 29 14.4969C28.9992 10.6516 27.471 6.96404 24.7515 4.2454ZM21.9597 20.1983C21.9591 20.199 21.9585 20.1996 21.9578 20.2003V20.1954L21.2231 20.9253C20.273 21.8874 18.8892 22.2833 17.574 21.9693C16.2488 21.6146 14.9892 21.05 13.8426 20.2969C12.7775 19.6162 11.7903 18.8204 10.8991 17.9238C10.0792 17.1098 9.34249 16.216 8.69996 15.2558C7.99716 14.2225 7.44089 13.097 7.04696 11.9111C6.59536 10.518 6.96959 8.98928 8.01364 7.96227L8.87396 7.10196C9.11315 6.86169 9.50182 6.86084 9.74203 7.10003C9.74265 7.10065 9.74333 7.10128 9.74396 7.10196L12.4603 9.81827C12.7005 10.0575 12.7014 10.4461 12.4622 10.6863C12.4616 10.687 12.461 10.6876 12.4603 10.6883L10.8653 12.2833C10.4076 12.7359 10.3501 13.4553 10.73 13.975C11.3068 14.7667 11.9452 15.5117 12.6391 16.2031C13.4128 16.9801 14.2539 17.6869 15.1525 18.3153C15.6717 18.6775 16.3756 18.6164 16.8248 18.1703L18.3666 16.6043C18.6058 16.3641 18.9944 16.3632 19.2347 16.6024C19.2353 16.603 19.2359 16.6036 19.2366 16.6043L21.9578 19.3303C22.1981 19.5695 22.1989 19.9581 21.9597 20.1983Z" fill="white"/>
</svg>
