<svg width="20" height="20" viewBox="0 0 20 20" fill="none" xmlns="http://www.w3.org/2000/svg">
<path d="M19.2808 3.15669C18.8222 2.69814 18.1873 2.43359 17.5347 2.43359C17.5347 1.79867 17.2702 1.18138 16.8116 0.722831C15.8593 -0.22955 14.2896 -0.22955 13.3372 0.722831C12.5083 1.53412 12.4025 2.78632 12.9668 3.7387L3.77813 12.9627C2.84338 12.3983 1.55591 12.4865 0.726981 13.3331C-0.2254 14.2854 -0.2254 15.8551 0.726981 16.8075C1.18553 17.266 1.82046 17.5306 2.47301 17.5306C2.47301 18.1832 2.73756 18.8181 3.19612 19.2766C4.1485 20.229 5.71816 20.229 6.67054 19.2766C7.58765 18.3595 7.62292 16.9133 6.84691 15.9609L15.9651 6.80749C16.9351 7.5835 18.3813 7.53059 19.2808 6.63112C20.2332 5.67874 20.2332 4.10908 19.2808 3.15669ZM18.4518 5.8022C17.958 6.29603 17.0938 6.31366 16.5824 5.8022C16.5118 5.73165 16.4765 5.69638 16.4236 5.62583C16.2296 5.34364 15.824 5.30837 15.5771 5.55528C15.5594 5.57292 5.61234 15.5553 5.57707 15.6082C5.36543 15.8727 5.4007 16.2608 5.68289 16.4548C6.33545 16.9309 6.40599 17.901 5.84162 18.4477C5.34779 18.9415 4.51887 18.9415 4.02504 18.4477C3.67231 18.095 3.54885 17.513 3.74285 17.0191C3.93686 16.5429 3.46067 16.0668 2.98448 16.2608C2.50829 16.4548 1.92628 16.3313 1.55591 15.9786C0.762254 15.1849 1.29135 13.774 2.49065 13.774C2.84338 13.774 3.17848 13.9151 3.42539 14.1444C3.65467 14.3736 4.02504 14.3736 4.25432 14.1444C14.8716 3.47415 14.219 4.16199 14.2896 4.02089C14.3954 3.79162 14.3425 3.52706 14.1661 3.3507C13.6723 2.85687 13.6723 2.02795 14.1661 1.53412C14.66 1.04029 15.4889 1.04029 15.9827 1.53412C16.3531 1.90449 16.4589 2.43359 16.2649 2.90978C16.212 3.03324 16.212 3.19197 16.2649 3.33306C16.3884 3.63288 16.7235 3.77398 17.0233 3.66816C17.4995 3.47415 18.0815 3.59761 18.4518 3.95035C18.9633 4.47945 18.9633 5.29073 18.4518 5.8022Z" fill="#961914"/>
<path d="M6.47264 7.23138C6.70192 7.46065 7.07229 7.46065 7.30157 7.23138C7.53084 7.0021 7.53084 6.63173 7.30157 6.40245L5.30862 4.40951C5.07934 4.18023 4.70897 4.18023 4.4797 4.40951C4.25042 4.63878 4.25042 5.00915 4.4797 5.23843L6.47264 7.23138Z" fill="#961914"/>
<path d="M2.18687 9.33004H4.9911C5.30856 9.33004 5.57311 9.06549 5.57311 8.74803C5.57311 8.43057 5.30856 8.16602 4.9911 8.16602H2.18687C1.86941 8.16602 1.60486 8.43057 1.60486 8.74803C1.60486 9.08312 1.86941 9.33004 2.18687 9.33004Z" fill="#961914"/>
<path d="M8.81834 5.52032C9.1358 5.52032 9.40035 5.25576 9.40035 4.9383V2.11643C9.40035 1.79897 9.1358 1.53442 8.81834 1.53442C8.50088 1.53442 8.23633 1.79897 8.23633 2.11643V4.9383C8.23633 5.25576 8.48324 5.52032 8.81834 5.52032Z" fill="#961914"/>
<path d="M13.5978 12.7691C13.3685 12.5398 12.9982 12.5398 12.7689 12.7691C12.5396 12.9984 12.5396 13.3688 12.7689 13.598L14.7618 15.591C14.8676 15.6968 15.0264 15.7674 15.1675 15.7674C15.6789 15.7674 15.9435 15.1324 15.5731 14.7621L13.5978 12.7691Z" fill="#961914"/>
<path d="M17.8835 10.6704H15.0616C14.7442 10.6704 14.4796 10.935 14.4796 11.2524C14.4796 11.5699 14.7442 11.8344 15.0616 11.8344H17.8659C18.1833 11.8344 18.4479 11.5699 18.4479 11.2524C18.4655 10.935 18.201 10.6704 17.8835 10.6704Z" fill="#961914"/>
<path d="M11.2522 14.4797C10.9347 14.4797 10.6702 14.7443 10.6702 15.0617V17.866C10.6702 18.1834 10.9347 18.448 11.2522 18.448C11.5696 18.448 11.8342 18.1834 11.8342 17.866V15.0617C11.8342 14.7443 11.5696 14.4797 11.2522 14.4797Z" fill="#961914"/>
</svg>
