<svg width="150" height="454" viewBox="0 0 150 454" fill="none" xmlns="http://www.w3.org/2000/svg">
<g clip-path="url(#clip0_71_129)">
<path d="M54.3139 90.3085C59.6913 87.5321 64.7125 84.1822 69.3814 80.3701C70.0631 79.7892 69.049 78.8475 68.3672 79.4285C63.8087 83.181 58.8406 86.4455 53.5734 89.1623C52.7729 89.552 53.5143 90.7261 54.3139 90.3085Z" fill="white"/>
<path d="M41.15 81.1064C42.1095 74.6594 43.6323 68.2769 45.6664 62.0723C45.9182 61.2271 44.5606 60.9106 44.2807 61.7568C42.2467 67.9614 40.7518 74.343 39.7643 80.7909C39.6544 81.6871 41.0121 82.0035 41.15 81.1064Z" fill="white"/>
<path d="M59.0324 106.128C65.3243 107.142 71.5882 108.156 77.8801 109.169C78.7546 109.307 79.1016 107.956 78.199 107.82C71.9071 106.806 65.6432 105.792 59.3513 104.779C58.4758 104.613 58.1288 105.964 59.0324 106.128Z" fill="white"/>
</g>
<g clip-path="url(#clip1_71_129)">
<path d="M-80.4535 422.438C-53.0846 417.951 -27.2074 406.168 -5.25201 389.356C17.1294 372.231 35.7788 349.629 47.3672 323.859C53.3815 310.471 57.4919 295.775 56.434 280.998C55.3691 266.111 49.1248 252.013 41.2802 239.473C33.3013 226.682 23.18 214.752 10.9069 205.882C-0.271824 197.784 -14.0172 192.192 -28.0216 193.655C-49.7051 195.932 -70.6181 219.607 -60.1402 241.467C-57.23 247.519 -52.4469 252.449 -47.1337 256.461C-41.3782 260.799 -34.7737 264.332 -27.8166 266.285C-14.4507 270.049 -1.05393 266.486 10.113 258.661C33.4646 242.341 46.3153 213.173 49.4201 185.548C52.6613 156.778 45.1866 127.837 30.5261 103.038C16.5228 79.2825 -3.67582 59.2259 -27.664 45.5512C-50.8385 32.3463 -77.7106 25.1217 -104.437 27.0406C-110.901 27.5064 -117.37 28.5282 -123.665 30.0357C-124.602 30.2643 -124.229 31.7391 -123.277 31.4843C-97.8332 25.3617 -71.0707 28.2906 -46.855 37.9342C-22.4405 47.6576 -0.876549 63.9552 15.6521 84.3065C33.0671 105.729 45.2559 131.9 48.03 159.526C50.8919 187.727 43.8353 217.408 26.6549 240.194C18.7206 250.724 8.20066 260.216 -4.52581 264.376C-18.5396 268.948 -32.7565 264.657 -44.5289 256.496C-55.1019 249.168 -63.7361 237.572 -60.9878 224.082C-58.7577 213.127 -50.3742 203.941 -40.5876 198.993C-14.5992 185.804 13.2996 206.284 29.3851 225.645C38.9855 237.204 47.2097 250.662 51.7386 265.065C56.1636 279.162 55.7414 293.715 51.6523 307.829C47.746 321.384 41.1027 334.164 33.3288 345.871C25.8083 357.199 16.9572 367.62 7.02082 376.889C-12.5651 395.173 -36.3466 409.146 -62.1043 416.661C-68.2954 418.474 -74.5713 419.887 -80.947 420.928C-81.8012 421.135 -81.4126 422.583 -80.4535 422.438Z" fill="white"/>
</g>
<defs>
<clipPath id="clip0_71_129">
<rect x="39.1068" y="61.4585" width="38" height="49" rx="2" transform="rotate(-1.94609 39.1068 61.4585)" fill="white"/>
</clipPath>
<clipPath id="clip1_71_129">
<rect x="-26.6565" y="453.707" width="296" height="353" rx="2" transform="rotate(-150 -26.6565 453.707)" fill="white"/>
</clipPath>
</defs>
</svg>
