<svg width="234" height="330" viewBox="0 0 234 330" fill="none" xmlns="http://www.w3.org/2000/svg">
<g clip-path="url(#clip0_71_130)">
<path d="M111.577 292.198C108.308 297.291 105.634 302.702 103.497 308.338C103.197 309.182 104.546 309.491 104.846 308.647C106.918 303.118 109.588 297.806 112.791 292.82C113.29 292.082 112.06 291.436 111.577 292.198Z" fill="white"/>
<path d="M127.578 293.585C129.971 299.648 131.843 305.937 133.184 312.327C133.388 313.185 134.722 312.78 134.542 311.907C133.201 305.517 131.305 299.243 128.936 293.165C128.583 292.334 127.249 292.739 127.578 293.585Z" fill="white"/>
<path d="M99.5805 280.857C93.6249 283.125 87.6931 285.379 81.7375 287.647C80.9113 287.965 81.286 289.308 82.136 288.975C88.0916 286.707 94.0234 284.453 99.979 282.185C100.82 281.89 100.445 280.547 99.5805 280.857Z" fill="white"/>
</g>
<g clip-path="url(#clip1_71_130)">
<path d="M62.2242 -62.8184C40.7653 -45.2486 24.2467 -22.1051 13.6385 3.43162C2.81812 29.453 -2.03136 58.3522 0.817711 86.4637C2.30286 101.065 6.09152 115.848 14.3962 128.116C22.7616 140.475 35.2187 149.563 48.282 156.5C61.5877 163.589 76.318 168.86 91.3817 170.405C105.112 171.828 119.812 169.799 131.208 161.529C148.848 148.715 155.122 117.756 135.118 104.064C129.571 100.277 122.964 98.399 116.357 97.5811C109.204 96.7026 101.717 96.945 94.7157 98.7322C81.2584 102.155 71.4382 111.94 65.6795 124.299C53.6164 150.109 57.0717 181.795 68.1951 207.271C79.7733 233.807 100.717 255.133 125.813 269.28C149.818 282.851 177.339 290.121 204.95 289.97C231.623 289.818 258.507 282.639 280.693 267.614C286.058 263.979 291.15 259.859 295.848 255.406C296.545 254.739 295.484 253.649 294.787 254.345C275.813 272.37 251.172 283.214 225.379 286.971C199.374 290.757 172.55 287.425 148.06 278.065C122.267 268.219 98.6256 251.649 82.4102 229.112C65.831 206.12 57.102 176.887 60.5875 148.564C62.1939 135.477 66.5584 121.997 75.4997 112.031C85.3502 101.065 99.8077 97.672 114.083 98.8534C126.904 99.9137 140.18 105.639 144.544 118.695C148.09 129.297 145.423 141.445 139.422 150.623C123.509 175.039 89.1085 171.253 65.4976 162.529C51.4038 157.318 37.5525 149.775 26.429 139.567C15.548 129.57 8.63749 116.756 5.12162 102.489C1.72699 88.7962 1.09049 74.4072 1.96946 60.3818C2.81812 46.8107 5.27317 33.3607 9.24368 20.3652C17.0635 -5.26237 30.6723 -29.2541 49.2216 -48.6414C53.677 -53.3065 58.4053 -57.6686 63.4063 -61.7581C64.0428 -62.364 62.982 -63.4242 62.2242 -62.8184Z" fill="white"/>
</g>
<defs>
<clipPath id="clip0_71_130">
<rect x="139.171" y="309.579" width="38" height="49" rx="2" transform="rotate(148.054 139.171 309.579)" fill="white"/>
</clipPath>
<clipPath id="clip1_71_130">
<rect width="296" height="290" rx="2" fill="white"/>
</clipPath>
</defs>
</svg>
