<svg width="20" height="21" viewBox="0 0 20 21" fill="none" xmlns="http://www.w3.org/2000/svg">
<path d="M7.24214 8.89476C6.93489 7.81941 5.99854 7.08203 4.91587 7.08203C3.83321 7.08203 2.89685 7.81941 2.58961 8.89476C1.81419 9.40171 1.17045 10.1852 0.716898 11.153C0.24872 12.1669 0 13.3498 0 14.5941C0 16.2839 0.453548 17.8662 1.28749 19.0184C2.19459 20.2934 3.48208 20.9847 4.91587 20.9847C6.34967 20.9847 7.63716 20.2934 8.54426 19.0184C8.64667 18.8801 8.61741 18.6958 8.48573 18.5883C8.35406 18.4807 8.17849 18.5114 8.07608 18.6497C7.28603 19.7558 6.15947 20.3703 4.91587 20.3703C3.67227 20.3703 2.54572 19.7558 1.75567 18.6497C0.994879 17.5897 0.585223 16.1457 0.585223 14.5941C0.585223 13.4419 0.804682 12.3359 1.2436 11.4295C1.66789 10.5231 2.26774 9.81649 2.99927 9.37099C3.07242 9.3249 3.11631 9.26345 3.13094 9.17128C3.33577 8.311 4.0673 7.69652 4.91587 7.69652C5.76445 7.69652 6.51061 8.29564 6.7008 9.17128C6.71543 9.24809 6.77396 9.3249 6.83248 9.37099C7.56401 9.81649 8.16386 10.5385 8.58815 11.4295C9.01243 12.3512 9.24652 13.4419 9.24652 14.5941C9.24652 15.6234 9.07096 16.6065 8.71982 17.4668C8.6613 17.6204 8.71982 17.8048 8.88076 17.8662C9.02707 17.9277 9.20263 17.8662 9.26116 17.6972C9.64155 16.7602 9.83175 15.7002 9.83175 14.5941C9.83175 13.3498 9.58303 12.1515 9.11485 11.153C8.67593 10.1852 8.01756 9.40171 7.24214 8.89476Z" fill="#961914"/>
<path d="M2.72133 12.6738C2.5604 12.6277 2.39946 12.7199 2.35557 12.8889C2.20926 13.4112 2.13611 13.9949 2.13611 14.5941C2.13611 17.0059 3.30655 18.7418 4.91592 18.7418C6.52528 18.7418 7.69573 16.9905 7.69573 14.5941C7.69573 12.1976 6.52528 10.4463 4.91592 10.4463C4.18439 10.4463 3.51138 10.815 3.01394 11.4909C2.91153 11.6292 2.94079 11.8135 3.05783 11.9211C3.18951 12.0286 3.36508 11.9979 3.46749 11.8596C3.86252 11.3373 4.35996 11.0608 4.91592 11.0608C6.18878 11.0608 7.1105 12.5509 7.1105 14.5941C7.1105 16.6372 6.18878 18.1273 4.91592 18.1273C3.64306 18.1273 2.72133 16.6372 2.72133 14.5941C2.72133 14.041 2.79448 13.5187 2.92616 13.0578C2.97005 12.8889 2.86764 12.7199 2.72133 12.6738Z" fill="#961914"/>
<path d="M18.7125 1.96635C17.8054 0.691295 16.5179 0 15.0841 0C13.6503 0 12.3482 0.691295 11.4557 1.96635C10.8705 2.78054 10.4608 3.82516 10.2853 4.97732C10.2414 5.13094 10.3584 5.29993 10.5193 5.33065C10.6803 5.34601 10.8266 5.23848 10.8559 5.0695C11.0168 4.02487 11.3826 3.07242 11.9239 2.33504C12.7139 1.22897 13.8259 0.614484 15.0841 0.614484C16.3277 0.614484 17.4542 1.22897 18.2443 2.33504C19.0051 3.39503 19.4147 4.83906 19.4147 6.39064C19.4147 7.54279 19.1953 8.64887 18.7564 9.55523C18.3321 10.4616 17.7322 11.1683 17.0007 11.6138C16.9275 11.6598 16.8837 11.7213 16.869 11.8135C16.6642 12.6737 15.9327 13.2882 15.0841 13.2882C14.2355 13.2882 13.4894 12.6891 13.2992 11.8135C13.2699 11.7366 13.226 11.6752 13.1529 11.6291C12.4213 11.1836 11.8215 10.4616 11.3972 9.57059C10.9729 8.64887 10.7534 7.54279 10.7534 6.39064C10.7534 6.22165 10.6218 6.08339 10.4608 6.08339C10.2999 6.08339 10.1682 6.22165 10.1682 6.39064C10.1682 7.63497 10.4169 8.83321 10.8851 9.83175C11.3387 10.7996 11.9824 11.583 12.7578 12.09C13.0651 13.1653 14.0014 13.9027 15.0841 13.9027C16.1668 13.9027 17.1031 13.1653 17.4104 12.09C18.1858 11.583 18.8441 10.7996 19.2831 9.83175C19.7512 8.83321 20 7.63497 20 6.39064C20 4.7008 19.5318 3.13387 18.7125 1.96635Z" fill="#961914"/>
<path d="M17.3665 8.03444C17.5274 8.06516 17.6884 7.97299 17.7176 7.804C17.82 7.3585 17.8639 6.88228 17.8639 6.39069C17.8639 3.97884 16.6935 2.24292 15.0841 2.24292C13.4748 2.24292 12.2897 3.9942 12.2897 6.39069C12.2897 8.78718 13.4601 10.5385 15.0695 10.5385C15.9327 10.5385 16.6935 10.0315 17.2202 9.12515C17.308 8.97152 17.2494 8.78718 17.1178 8.71037C16.9715 8.6182 16.7959 8.67964 16.7227 8.8179C16.3131 9.53992 15.7279 9.93934 15.0841 9.93934C13.8113 9.93934 12.8895 8.44921 12.8895 6.40605C12.8895 4.36289 13.8113 2.87277 15.0841 2.87277C16.357 2.87277 17.2787 4.36289 17.2787 6.40605C17.2787 6.85155 17.2348 7.28169 17.147 7.68111C17.1031 7.83473 17.2055 8.00371 17.3665 8.03444Z" fill="#961914"/>
<path d="M4.28676 15.9764C4.28676 15.8074 4.15509 15.6692 3.99415 15.6692C3.83321 15.6692 3.70154 15.8074 3.70154 15.9764C3.70154 16.1454 3.83321 16.2837 3.99415 16.2837C4.15509 16.2837 4.28676 16.1454 4.28676 15.9764Z" fill="#961914"/>
<path d="M5.16456 17.144C5.32616 17.144 5.45717 17.0065 5.45717 16.8368C5.45717 16.6671 5.32616 16.5295 5.16456 16.5295C5.00295 16.5295 4.87195 16.6671 4.87195 16.8368C4.87195 17.0065 5.00295 17.144 5.16456 17.144Z" fill="#961914"/>
<path d="M5.67665 13.0117C5.83825 13.0117 5.96926 12.8741 5.96926 12.7045C5.96926 12.5348 5.83825 12.3972 5.67665 12.3972C5.51504 12.3972 5.38403 12.5348 5.38403 12.7045C5.38403 12.8741 5.51504 13.0117 5.67665 13.0117Z" fill="#961914"/>
<path d="M13.8551 5.02355C13.8551 5.19254 13.9868 5.33079 14.1477 5.33079C14.3086 5.33079 14.4403 5.19254 14.4403 5.02355C14.4403 4.85457 14.3086 4.71631 14.1477 4.71631C13.9868 4.71631 13.8551 4.85457 13.8551 5.02355Z" fill="#961914"/>
<path d="M15.3182 4.47044C15.4799 4.47044 15.6109 4.33288 15.6109 4.1632C15.6109 3.99351 15.4799 3.85596 15.3182 3.85596C15.1566 3.85596 15.0256 3.99351 15.0256 4.1632C15.0256 4.33288 15.1566 4.47044 15.3182 4.47044Z" fill="#961914"/>
<path d="M15.8449 8.60277C16.0065 8.60277 16.1375 8.46521 16.1375 8.29553C16.1375 8.12584 16.0065 7.98828 15.8449 7.98828C15.6833 7.98828 15.5522 8.12584 15.5522 8.29553C15.5522 8.46521 15.6833 8.60277 15.8449 8.60277Z" fill="#961914"/>
</svg>
